<svg id="Group_2" data-name="Group 2" xmlns="http://www.w3.org/2000/svg" xmlns:xlink="http://www.w3.org/1999/xlink" width="150" height="34.952" viewBox="0 0 150 34.952">
  <defs>
    <clipPath id="clip-path">
      <rect id="Rectangle_3" data-name="Rectangle 3" width="150" height="34.952" fill="none"/>
    </clipPath>
  </defs>
  <g id="Group_1" data-name="Group 1" clip-path="url(#clip-path)">
    <path id="Path_1" data-name="Path 1" d="M149.295,27.773a10.286,10.286,0,0,1-5.184-1.258,7.51,7.51,0,0,1-3.5-4.67,14.415,14.415,0,0,1,.165-8.791,7.5,7.5,0,0,1,5.783-5.149,11.746,11.746,0,0,1,7.093.494,7.253,7.253,0,0,1,4.069,4.259,14.187,14.187,0,0,1,.808,6.166,11.6,11.6,0,0,1-1.054,4.4,7.546,7.546,0,0,1-5.868,4.311c-.762.135-1.543.159-2.316.234m-3.756-10.107c.1.814.151,1.64.324,2.439a3.522,3.522,0,0,0,6.841.1,10.936,10.936,0,0,0,.088-4.71,3.489,3.489,0,0,0-6.8-.685,10.657,10.657,0,0,0-.458,2.855" transform="translate(-87.716 -4.75)" fill="#fff"/>
    <path id="Path_2" data-name="Path 2" d="M224.737,8.252,221.972,19.17l-2.63-10.9h-5.91L210.88,19.191l-2.715-10.92h-6.083l5.692,19.645h6.054l2.529-10.6,2.677,10.6h6.023l5.706-19.665Z" transform="translate(-126.606 -5.17)" fill="#fff"/>
    <path id="Path_3" data-name="Path 3" d="M95.011,9.341v-1.5l-6.308,0-2.434,4.783h3.087V27.594h5.66s0-6.783,0-9.941a14.171,14.171,0,0,1,.085-1.593,3.211,3.211,0,0,1,2.134-2.855,7.547,7.547,0,0,1,2.772-.457c.34,0,.68,0,1.036,0V7.855a6.561,6.561,0,0,0-6.036,1.486" transform="translate(-54.048 -4.818)" fill="#fff"/>
    <path id="Path_4" data-name="Path 4" d="M366.96,14.927a16.169,16.169,0,0,0-.311-2.863,5.31,5.31,0,0,0-1.466-2.871,6.676,6.676,0,0,0-4.733-1.7,6.924,6.924,0,0,0-5.179,2.056c-.106.1-.219.2-.369.33l-.488-2.1-5.493,0-2.466,4.657h3.173V27.394h5.694l.011-11.717a2.656,2.656,0,0,1,1.472-2.524,3.3,3.3,0,0,1,2.008-.291,2.582,2.582,0,0,1,2.29,1.993l.151,1.392.005,11.162h5.706s.031-8.46,0-12.483" transform="translate(-217.056 -4.694)" fill="#fff"/>
    <path id="Path_5" data-name="Path 5" d="M307.39,15.736a16.411,16.411,0,0,0-.184-2.459,6.149,6.149,0,0,0-4.248-5.153,10.977,10.977,0,0,0-3.525-.607,20.554,20.554,0,0,0-6.827,1.124l-.269.09,1.233,4.465c.577-.156,1.1-.315,1.63-.436a9.84,9.84,0,0,1,4.988-.113,1.9,1.9,0,0,1,1.5,2.07c-.5,0-.969.012-1.439,0a13.532,13.532,0,0,0-4.9.633,6.068,6.068,0,0,0-3.823,3.276,6.824,6.824,0,0,0-.38,3.7,5.4,5.4,0,0,0,2.81,4.279,10.963,10.963,0,0,0,4.866,1.129,26.129,26.129,0,0,0,8.264-1.066c.27-.071.316-.089.316-.089s0-7.347-.016-10.836m-5.659,7.13-.378.051a7.531,7.531,0,0,1-3.369-.114,1.854,1.854,0,0,1-1.415-1.891,1.824,1.824,0,0,1,1.38-1.873,7.749,7.749,0,0,1,3.475-.279c.236.024.307.035.307.035Z" transform="translate(-182.352 -4.707)" fill="#fff"/>
    <path id="Path_6" data-name="Path 6" d="M26.1,20.058c-.2-.418-.387-.8-.569-1.176q-2.248-4.67-4.5-9.339a13.117,13.117,0,0,1-.7-1.439,5.868,5.868,0,0,1,.3-4.736,5.821,5.821,0,0,1,4.622-3.3,5.849,5.849,0,0,1,5.847,2.6,5.852,5.852,0,0,1,.974,4.482,8.207,8.207,0,0,1-.851,2.279C30.458,11,26.176,19.9,26.1,20.058M26.081,9.525A3.177,3.177,0,1,0,22.92,6.353a3.175,3.175,0,0,0,3.161,3.172m6-2.384a8.207,8.207,0,0,1-.851,2.279L26.1,20.058M31.23,9.421,26.1,20.058M31.23,9.421,26.1,20.058" transform="translate(-12.516 0)" fill="#fff"/>
    <path id="Path_7" data-name="Path 7" d="M9.867,27.9a14.207,14.207,0,0,1,1.759-1.575l.2-.153" transform="translate(-6.182 -16.394)" fill="#fff"/>
    <path id="Path_8" data-name="Path 8" d="M26.884,34.432a13.615,13.615,0,0,0-5.175-8.13l-.151-.118s-1.146,2.363-1.682,3.455l-.291.592s.031.03.115.1a8.634,8.634,0,0,1,1.615,1.881,9.211,9.211,0,0,1,1.4,3.948,9.067,9.067,0,0,1-.029,2.34A9.2,9.2,0,0,1,21.422,42a9.064,9.064,0,0,1-2.268,2.512,9.187,9.187,0,0,1-3.86,1.717,8.908,8.908,0,0,1-2.737.109,9.166,9.166,0,0,1-3.309-1.038,9.033,9.033,0,0,1-3.369-3.091A9.185,9.185,0,0,1,4.448,38.2a8.843,8.843,0,0,1,.093-2.667,9.1,9.1,0,0,1,2.931-5.2,1.311,1.311,0,0,0,.141-.139L5.645,26.169l-.2.152A14.237,14.237,0,0,0,3.685,27.9,13.618,13.618,0,0,0,.113,38.951,13.613,13.613,0,0,0,9.451,50.145a13.3,13.3,0,0,0,4.215.641A9.749,9.749,0,0,0,15.14,50.7a13.613,13.613,0,0,0,3.536-.9,13.6,13.6,0,0,0,8.479-11.91,13.37,13.37,0,0,0-.272-3.453" transform="translate(0 -16.395)" fill="#fff"/>
    <path id="Path_9" data-name="Path 9" d="M91.6,69.277v6.9H90.373l-.032-.6a1.634,1.634,0,0,1-1.451.71,2.415,2.415,0,0,1,0-4.815,1.648,1.648,0,0,1,1.415.647V69.277Zm-1.19,4.6a1.229,1.229,0,1,0-2.448,0,1.228,1.228,0,1,0,2.448,0" transform="translate(-54.297 -43.403)" fill="#fff"/>
    <path id="Path_10" data-name="Path 10" d="M106.609,70.3a.745.745,0,1,1,.75.745.749.749,0,0,1-.75-.745m.089,1.437H108V76.35h-1.3Z" transform="translate(-66.791 -43.576)" fill="#fff"/>
    <path id="Path_11" data-name="Path 11" d="M121.025,75.236v4.271a2.215,2.215,0,0,1-2.448,2.524A2.26,2.26,0,0,1,116.2,80.6l1.073-.458a1.264,1.264,0,0,0,1.258.885c.818,0,1.2-.512,1.2-1.424v-.539a1.746,1.746,0,0,1-1.4.629,2.279,2.279,0,0,1,.009-4.545,1.64,1.64,0,0,1,1.428.7l.032-.611Zm-1.172,2.174a1.2,1.2,0,0,0-1.195-1.24,1.238,1.238,0,0,0,0,2.475,1.2,1.2,0,0,0,1.195-1.235" transform="translate(-72.798 -47.079)" fill="#fff"/>
    <path id="Path_12" data-name="Path 12" d="M135.872,70.3a.746.746,0,1,1,.75.745.75.75,0,0,1-.75-.745m.09,1.437h1.3V76.35h-1.3Z" transform="translate(-85.125 -43.576)" fill="#fff"/>
    <path id="Path_13" data-name="Path 13" d="M145.887,76.06V73.878h-.907v-.993h.292c.49,0,.759-.189.759-.88v-.611H147.2v1.491h.952v.993H147.2v2.043c0,.413.2.6.534.6h.418V77.5H147.3a1.3,1.3,0,0,1-1.41-1.442" transform="translate(-90.831 -44.729)" fill="#fff"/>
    <path id="Path_14" data-name="Path 14" d="M162.84,79.727v.126h-1.208l-.1-.5a1.934,1.934,0,0,1-1.482.593c-.728,0-1.437-.323-1.437-1.284s.714-1.28,1.68-1.491l.759-.17c.328-.077.444-.189.444-.377,0-.454-.413-.58-.777-.58a.8.8,0,0,0-.9.7l-1.145-.207c.193-.957.893-1.392,2.12-1.392.926,0,1.94.274,1.94,1.666V78.6a4.31,4.31,0,0,0,.112,1.127m-1.28-1.985-1.1.31c-.359.085-.62.211-.62.521,0,.332.274.494.607.494.615,0,1.109-.408,1.109-1.324" transform="translate(-99.37 -47.079)" fill="#fff"/>
    <rect id="Rectangle_2" data-name="Rectangle 2" width="1.306" height="6.899" transform="translate(65.883 25.874)" fill="#fff"/>
    <path id="Path_15" data-name="Path 15" d="M197.138,70.3a.746.746,0,1,1,.75.745.75.75,0,0,1-.75-.745m.09,1.437h1.3V76.35h-1.3Z" transform="translate(-123.508 -43.576)" fill="#fff"/>
    <path id="Path_16" data-name="Path 16" d="M212.292,76.745v3.108h-1.3V77.024a.756.756,0,0,0-.826-.84c-.535,0-1.02.27-1.029,1.123v2.546h-1.293V75.236h1.293v.512a1.821,1.821,0,0,1,1.433-.6,1.5,1.5,0,0,1,1.72,1.6" transform="translate(-130.217 -47.079)" fill="#fff"/>
    <path id="Path_17" data-name="Path 17" d="M227.14,71.066v.494h.992v.993h-.992v3.624H225.85V72.552h-.9V71.56h.9v-.5c0-1.558.943-1.783,2.282-1.783v1.033c-.427,0-.992-.018-.992.754" transform="translate(-140.932 -43.403)" fill="#fff"/>
    <path id="Path_18" data-name="Path 18" d="M241.578,75.243V76.4c-.979,0-1.446.287-1.446,1.267v2.25h-1.3V75.3h1.24v.732a1.807,1.807,0,0,1,1.509-.785" transform="translate(-149.628 -47.14)" fill="#fff"/>
    <path id="Path_19" data-name="Path 19" d="M254.885,79.727v.126h-1.208l-.1-.5a1.935,1.935,0,0,1-1.482.593c-.727,0-1.437-.323-1.437-1.284s.715-1.28,1.68-1.491l.759-.17c.328-.077.444-.189.444-.377,0-.454-.413-.58-.777-.58a.8.8,0,0,0-.9.7l-1.145-.207c.193-.957.894-1.392,2.12-1.392.925,0,1.941.274,1.941,1.666V78.6a4.315,4.315,0,0,0,.112,1.127m-1.28-1.985-1.1.31c-.359.085-.62.211-.62.521,0,.332.274.494.607.494.615,0,1.109-.408,1.109-1.324" transform="translate(-157.036 -47.079)" fill="#fff"/>
    <path id="Path_20" data-name="Path 20" d="M267.42,78.658l1.082-.306a.879.879,0,0,0,.925.687c.319,0,.665-.1.656-.463,0-.48-.732-.521-1.464-.781-.553-.193-1.082-.49-1.082-1.267,0-.948.785-1.383,1.81-1.383a1.635,1.635,0,0,1,1.828,1.222l-1,.224a.783.783,0,0,0-.822-.584c-.341,0-.633.121-.633.409,0,.364.534.436,1.114.593.714.193,1.5.5,1.5,1.491,0,1.06-.9,1.442-1.9,1.442-1.038,0-1.841-.409-2.008-1.285" transform="translate(-167.541 -47.079)" fill="#fff"/>
    <path id="Path_21" data-name="Path 21" d="M283.075,76.06V73.878h-.908v-.993h.292c.49,0,.759-.189.759-.88v-.611h1.168v1.491h.952v.993h-.952v2.043c0,.413.2.6.534.6h.418V77.5h-.853a1.3,1.3,0,0,1-1.41-1.442" transform="translate(-176.78 -44.729)" fill="#fff"/>
    <path id="Path_22" data-name="Path 22" d="M299.482,75.243V76.4c-.98,0-1.446.287-1.446,1.267v2.25h-1.3V75.3h1.24v.732a1.807,1.807,0,0,1,1.509-.785" transform="translate(-185.905 -47.14)" fill="#fff"/>
    <path id="Path_23" data-name="Path 23" d="M313.714,75.387V80h-1.226l-.031-.557a1.81,1.81,0,0,1-1.469.647,1.5,1.5,0,0,1-1.72-1.6V75.387h1.3v2.83a.756.756,0,0,0,.83.836c.535,0,1.02-.27,1.024-1.119V75.387Z" transform="translate(-193.759 -47.23)" fill="#fff"/>
    <path id="Path_24" data-name="Path 24" d="M327.116,77.54a2.319,2.319,0,0,1,2.475-2.394,2.128,2.128,0,0,1,2.267,1.7l-1.194.13a1.025,1.025,0,0,0-1.087-.808,1.393,1.393,0,0,0,0,2.749,1.03,1.03,0,0,0,1.087-.809l1.194.13a2.147,2.147,0,0,1-2.267,1.7,2.324,2.324,0,0,1-2.475-2.4" transform="translate(-204.941 -47.079)" fill="#fff"/>
    <path id="Path_25" data-name="Path 25" d="M344.982,76.06V73.878h-.908v-.993h.292c.489,0,.759-.189.759-.88v-.611h1.168v1.491h.952v.993h-.952v2.043c0,.413.2.6.535.6h.417V77.5h-.853a1.3,1.3,0,0,1-1.41-1.442" transform="translate(-215.565 -44.729)" fill="#fff"/>
    <path id="Path_26" data-name="Path 26" d="M362.835,75.387V80h-1.226l-.031-.557a1.811,1.811,0,0,1-1.469.647,1.5,1.5,0,0,1-1.72-1.6V75.387h1.3v2.83a.756.756,0,0,0,.831.836c.534,0,1.02-.27,1.024-1.119V75.387Z" transform="translate(-224.533 -47.23)" fill="#fff"/>
    <path id="Path_27" data-name="Path 27" d="M380.018,75.243V76.4c-.979,0-1.447.287-1.447,1.267v2.25h-1.3V75.3h1.24v.732a1.807,1.807,0,0,1,1.509-.785" transform="translate(-236.362 -47.14)" fill="#fff"/>
    <path id="Path_28" data-name="Path 28" d="M393.7,77.772h-3.423a1.124,1.124,0,0,0,1.181,1.136,1.018,1.018,0,0,0,1-.624l1.186.175a2.159,2.159,0,0,1-2.174,1.469,2.4,2.4,0,1,1-.041-4.806,2.114,2.114,0,0,1,2.287,2.34Zm-3.387-.844h2.12a.936.936,0,0,0-1-.89,1.033,1.033,0,0,0-1.123.89" transform="translate(-243.71 -47.064)" fill="#fff"/>
  </g>
</svg>
