<?xml version="1.0" encoding="utf-8"?>
<!-- Generator: Adobe Illustrator 26.0.1, SVG Export Plug-In . SVG Version: 6.00 Build 0)  -->
<svg version="1.1" id="Layer_1" xmlns="http://www.w3.org/2000/svg" xmlns:xlink="http://www.w3.org/1999/xlink" x="0px" y="0px"
	 width="26.6px" height="26.6px" viewBox="0 0 26.6 26.6" enable-background="new 0 0 26.6 26.6" xml:space="preserve">
<g>
	<circle fill="none" cx="17.1" cy="9.5" r="6.5"/>
	<path fill="#FFFFFF" d="M17.1,0c-5.2,0-9.5,4.3-9.5,9.5c0,2.1,0.7,4,1.8,5.6l-8.3,8.3c-0.6,0.6-0.6,1.5,0,2.1
		c0.3,0.3,0.7,0.4,1.1,0.4s0.8-0.1,1.1-0.4l8.3-8.3c1.6,1.1,3.5,1.8,5.6,1.8c5.2,0,9.5-4.3,9.5-9.5S22.3,0,17.1,0z M17.1,16
		c-3.6,0-6.5-2.9-6.5-6.5S13.5,3,17.1,3s6.5,2.9,6.5,6.5S20.6,16,17.1,16z"/>
</g>
</svg>
